<svg width="87" height="87" viewBox="0 0 87 87" fill="none" xmlns="http://www.w3.org/2000/svg">
<g clip-path="url(#clip0_273_63)">
<path d="M32.045 39.2769H24.9219V32.538H31.3852C38.193 32.538 37.352 39.2769 32.045 39.2769ZM53.0301 43.1121H62.5421C62.1253 36.9967 53.9871 36.5509 53.0301 43.1121ZM31.6426 44.5476H24.9219V51.6055H31.5339C37.9936 51.6019 37.5985 44.5476 31.6426 44.5476ZM87 43.5C87 67.5229 67.5229 87 43.5 87C19.4771 87 0 67.5229 0 43.5C0 19.4771 19.4771 0 43.5 0C67.5229 0 87 19.4771 87 43.5ZM38.5809 40.8429C44.6274 37.7508 44.4062 26.4117 32.828 26.2414H18.125V57.8876H31.7949C46.1426 57.8876 45.8997 43.5073 38.5809 40.8429ZM50.75 29.3661H65.25V26.1942H50.75V29.3661ZM68.6684 42.7532C66.6928 30.0476 46.7263 29.3009 46.7263 45.9143C46.7263 62.321 65.5038 59.7545 68.2914 51.5692H61.5924C59.2542 54.2807 52.5009 53.4941 52.8779 47.2772H68.8641C68.8967 45.2654 68.8315 43.8226 68.6684 42.7532Z" fill="#E0FB7A"/>
</g>
<defs>
<clipPath id="clip0_273_63">
<rect width="87" height="87" fill="white"/>
</clipPath>
</defs>
</svg>
