<svg width="88" height="87" viewBox="0 0 88 87" fill="none" xmlns="http://www.w3.org/2000/svg">
<g clip-path="url(#clip0_273_67)">
<path d="M43.8429 0C19.8236 0 0.342896 19.4771 0.342896 43.5C0.342896 62.7198 12.8056 79.025 30.0933 84.7779C32.2646 85.1803 32.9679 83.8318 32.9679 82.6863V74.588C20.8676 77.2198 18.3483 69.455 18.3483 69.455C16.369 64.4271 13.5161 63.0895 13.5161 63.0895C9.56852 60.3889 13.817 60.4469 13.817 60.4469C18.1851 60.7514 20.4834 64.931 20.4834 64.931C24.3621 71.5793 30.6588 69.658 33.1419 68.5451C33.5298 65.7358 34.6571 63.8145 35.9041 62.7306C26.2435 61.625 16.0863 57.8949 16.0863 41.2308C16.0863 36.4784 17.7864 32.5996 20.5668 29.5546C20.1173 28.4563 18.6274 24.0301 20.9909 18.0416C20.9909 18.0416 24.6449 16.8744 32.957 22.5004C36.4261 21.5361 40.1454 21.054 43.8429 21.0359C47.5404 21.054 51.2633 21.5361 54.7396 22.5004C63.0445 16.8744 66.6913 18.0416 66.6913 18.0416C69.0584 24.0338 67.5685 28.4599 67.119 29.5546C69.9103 32.5996 71.5959 36.482 71.5959 41.2308C71.5959 57.9384 61.4205 61.6178 51.7345 62.6944C53.2933 64.0429 54.7179 66.6891 54.7179 70.7491V82.6863C54.7179 83.8426 55.4139 85.202 57.6215 84.7743C74.8946 79.0141 87.3429 62.7125 87.3429 43.5C87.3429 19.4771 67.8658 0 43.8429 0Z" fill="#E0FB7A"/>
</g>
<defs>
<clipPath id="clip0_273_67">
<rect width="87" height="87" fill="white" transform="translate(0.342896)"/>
</clipPath>
</defs>
</svg>
