<svg width="88" height="87" viewBox="0 0 88 87" fill="none" xmlns="http://www.w3.org/2000/svg">
<g clip-path="url(#clip0_273_65)">
<path d="M43.6714 0C19.6485 0 0.171387 19.4771 0.171387 43.5C0.171387 67.5229 19.6485 87 43.6714 87C67.6943 87 87.1714 67.5229 87.1714 43.5C87.1714 19.4771 67.6943 0 43.6714 0ZM36.4214 58H29.1714V36.25H36.4214V58ZM32.7964 33.0201C30.596 33.0201 28.8089 31.2221 28.8089 29C28.8089 26.7815 30.5924 24.9799 32.7964 24.9799C35.0004 24.9799 36.7839 26.7815 36.7839 29C36.7839 31.2221 34.9968 33.0201 32.7964 33.0201ZM61.7964 58H54.5536V47.6289C54.5536 40.8102 47.2964 41.3866 47.2964 47.6289V58H40.0464V36.25H47.2964V40.2121C50.4574 34.3541 61.7964 33.9191 61.7964 45.8236V58Z" fill="#E0FB7A"/>
</g>
<defs>
<clipPath id="clip0_273_65">
<rect width="87" height="87" fill="white" transform="translate(0.171387)"/>
</clipPath>
</defs>
</svg>
